<mxfile host="app.diagrams.net" agent="Mozilla/5.0 (Windows NT 10.0; Win64; x64) AppleWebKit/537.36 (KHTML, like Gecko) Chrome/135.0.0.0 Safari/537.36" scale="1" border="0" version="26.2.12">
  <diagram name="Page-1" id="5bSsE4dI8M_DE7kw6x8n">
    <mxGraphModel dx="3393" dy="2293" grid="1" gridSize="10" guides="1" tooltips="1" connect="1" arrows="1" fold="1" page="1" pageScale="1" pageWidth="827" pageHeight="1169" math="0" shadow="0">
      <root>
        <mxCell id="0" />
        <mxCell id="1" parent="0" />
        <mxCell id="Ol68pxwGy6gouUy0jPH--1" value="&lt;font style=&quot;font-size: 24px;&quot;&gt;USER&lt;/font&gt;" style="rounded=0;whiteSpace=wrap;html=1;fillColor=#fff2cc;strokeColor=#d6b656;" parent="1" vertex="1">
          <mxGeometry x="140" y="20" width="120" height="60" as="geometry" />
        </mxCell>
        <mxCell id="Ol68pxwGy6gouUy0jPH--2" value="&lt;font style=&quot;font-size: 24px;&quot;&gt;&lt;u&gt;UserID&lt;/u&gt;&lt;/font&gt;" style="ellipse;whiteSpace=wrap;html=1;fillColor=#d5e8d4;strokeColor=#82b366;" parent="1" vertex="1">
          <mxGeometry x="10" y="-80" width="120" height="80" as="geometry" />
        </mxCell>
        <mxCell id="Ol68pxwGy6gouUy0jPH--4" value="&lt;font style=&quot;font-size: 24px;&quot;&gt;UName&lt;/font&gt;" style="ellipse;whiteSpace=wrap;html=1;fillColor=#d5e8d4;strokeColor=#82b366;" parent="1" vertex="1">
          <mxGeometry x="140" y="-150" width="120" height="80" as="geometry" />
        </mxCell>
        <mxCell id="Ol68pxwGy6gouUy0jPH--5" value="&lt;font style=&quot;font-size: 24px;&quot;&gt;UPhone&lt;/font&gt;" style="ellipse;whiteSpace=wrap;html=1;fillColor=#d5e8d4;strokeColor=#82b366;" parent="1" vertex="1">
          <mxGeometry x="280" y="-80" width="120" height="80" as="geometry" />
        </mxCell>
        <mxCell id="Ol68pxwGy6gouUy0jPH--6" value="&lt;font style=&quot;font-size: 24px;&quot;&gt;UEmail&lt;/font&gt;" style="ellipse;whiteSpace=wrap;html=1;fillColor=#d5e8d4;strokeColor=#82b366;" parent="1" vertex="1">
          <mxGeometry x="10" y="100" width="120" height="80" as="geometry" />
        </mxCell>
        <mxCell id="Ol68pxwGy6gouUy0jPH--7" value="&lt;font style=&quot;font-size: 24px;&quot;&gt;UDOB&lt;/font&gt;" style="ellipse;whiteSpace=wrap;html=1;fillColor=#d5e8d4;strokeColor=#82b366;" parent="1" vertex="1">
          <mxGeometry x="280" y="100" width="120" height="80" as="geometry" />
        </mxCell>
        <mxCell id="Ol68pxwGy6gouUy0jPH--14" value="&lt;font style=&quot;font-size: 24px; line-height: 80%;&quot;&gt;IS A&lt;/font&gt;" style="triangle;whiteSpace=wrap;html=1;rotation=90;horizontal=0;fillColor=#dae8fc;strokeColor=#6c8ebf;" parent="1" vertex="1">
          <mxGeometry x="160" y="160" width="80" height="120" as="geometry" />
        </mxCell>
        <mxCell id="Ol68pxwGy6gouUy0jPH--15" value="" style="endArrow=none;html=1;rounded=0;exitX=0;exitY=0.75;exitDx=0;exitDy=0;entryX=0.25;entryY=1;entryDx=0;entryDy=0;" parent="1" edge="1">
          <mxGeometry width="50" height="50" relative="1" as="geometry">
            <mxPoint x="180" y="180" as="sourcePoint" />
            <mxPoint x="180" y="80" as="targetPoint" />
          </mxGeometry>
        </mxCell>
        <mxCell id="Ol68pxwGy6gouUy0jPH--16" value="" style="endArrow=none;html=1;rounded=0;exitX=0;exitY=0.75;exitDx=0;exitDy=0;entryX=0.25;entryY=1;entryDx=0;entryDy=0;" parent="1" edge="1">
          <mxGeometry width="50" height="50" relative="1" as="geometry">
            <mxPoint x="216" y="181" as="sourcePoint" />
            <mxPoint x="216" y="81" as="targetPoint" />
          </mxGeometry>
        </mxCell>
        <mxCell id="Ol68pxwGy6gouUy0jPH--17" value="&lt;font style=&quot;font-size: 24px;&quot;&gt;BUYER&lt;/font&gt;" style="rounded=0;whiteSpace=wrap;html=1;fillColor=#fff2cc;strokeColor=#d6b656;" parent="1" vertex="1">
          <mxGeometry x="375.14" y="375" width="120" height="60" as="geometry" />
        </mxCell>
        <mxCell id="Ol68pxwGy6gouUy0jPH--18" value="&lt;font style=&quot;font-size: 24px;&quot;&gt;SELLER&lt;/font&gt;" style="rounded=0;whiteSpace=wrap;html=1;fillColor=#fff2cc;strokeColor=#d6b656;" parent="1" vertex="1">
          <mxGeometry x="-110" y="375" width="120" height="60" as="geometry" />
        </mxCell>
        <mxCell id="Ol68pxwGy6gouUy0jPH--24" value="" style="endArrow=classic;html=1;rounded=0;exitX=1;exitY=0.5;exitDx=0;exitDy=0;entryX=0.5;entryY=0;entryDx=0;entryDy=0;" parent="1" source="Ol68pxwGy6gouUy0jPH--14" target="Ol68pxwGy6gouUy0jPH--17" edge="1">
          <mxGeometry width="50" height="50" relative="1" as="geometry">
            <mxPoint x="230" y="330" as="sourcePoint" />
            <mxPoint x="280" y="280" as="targetPoint" />
          </mxGeometry>
        </mxCell>
        <mxCell id="Ol68pxwGy6gouUy0jPH--26" value="&lt;font style=&quot;font-size: 24px;&quot;&gt;Cart&lt;/font&gt;" style="rhombus;whiteSpace=wrap;html=1;fillColor=#f8cecc;strokeColor=#b85450;" parent="1" vertex="1">
          <mxGeometry x="370.14" y="630" width="130" height="130" as="geometry" />
        </mxCell>
        <mxCell id="Ol68pxwGy6gouUy0jPH--28" value="&lt;font style=&quot;font-size: 24px;&quot;&gt;PRODUCTS&lt;/font&gt;" style="rounded=0;whiteSpace=wrap;html=1;fillColor=#fff2cc;strokeColor=#d6b656;" parent="1" vertex="1">
          <mxGeometry x="357.64" y="916" width="155" height="60" as="geometry" />
        </mxCell>
        <mxCell id="Ol68pxwGy6gouUy0jPH--29" value="" style="endArrow=none;html=1;rounded=0;entryX=0.5;entryY=1;entryDx=0;entryDy=0;" parent="1" source="Ol68pxwGy6gouUy0jPH--28" target="Ol68pxwGy6gouUy0jPH--26" edge="1">
          <mxGeometry width="50" height="50" relative="1" as="geometry">
            <mxPoint x="445.14000000000004" y="646" as="sourcePoint" />
            <mxPoint x="495.14000000000004" y="596" as="targetPoint" />
          </mxGeometry>
        </mxCell>
        <mxCell id="Ol68pxwGy6gouUy0jPH--30" value="&lt;font style=&quot;font-size: 24px;&quot;&gt;&lt;u&gt;PID&lt;/u&gt;&lt;/font&gt;" style="ellipse;whiteSpace=wrap;html=1;fillColor=#d5e8d4;strokeColor=#82b366;" parent="1" vertex="1">
          <mxGeometry x="245.14" y="756" width="120" height="80" as="geometry" />
        </mxCell>
        <mxCell id="Ol68pxwGy6gouUy0jPH--31" value="&lt;font style=&quot;font-size: 24px;&quot;&gt;PBrand&lt;/font&gt;" style="ellipse;whiteSpace=wrap;html=1;fillColor=#d5e8d4;strokeColor=#82b366;" parent="1" vertex="1">
          <mxGeometry x="109.99999999999999" y="1020" width="120" height="80" as="geometry" />
        </mxCell>
        <mxCell id="Ol68pxwGy6gouUy0jPH--32" value="&lt;font style=&quot;font-size: 24px;&quot;&gt;PPrice&lt;/font&gt;" style="ellipse;whiteSpace=wrap;html=1;fillColor=#d5e8d4;strokeColor=#82b366;" parent="1" vertex="1">
          <mxGeometry x="595.1400000000001" y="997" width="120" height="80" as="geometry" />
        </mxCell>
        <mxCell id="Ol68pxwGy6gouUy0jPH--33" value="&lt;font style=&quot;font-size: 24px;&quot;&gt;PQuantity&lt;/font&gt;" style="ellipse;whiteSpace=wrap;html=1;fillColor=#d5e8d4;strokeColor=#82b366;" parent="1" vertex="1">
          <mxGeometry x="515.1400000000001" y="1116" width="120" height="80" as="geometry" />
        </mxCell>
        <mxCell id="Ol68pxwGy6gouUy0jPH--34" value="&lt;font style=&quot;font-size: 24px;&quot;&gt;PDes&lt;/font&gt;" style="ellipse;whiteSpace=wrap;html=1;fillColor=#d5e8d4;strokeColor=#82b366;" parent="1" vertex="1">
          <mxGeometry x="520.1400000000001" y="750" width="120" height="80" as="geometry" />
        </mxCell>
        <mxCell id="Ol68pxwGy6gouUy0jPH--35" value="&lt;font style=&quot;font-size: 24px;&quot;&gt;PName&lt;/font&gt;" style="ellipse;whiteSpace=wrap;html=1;fillColor=#d5e8d4;strokeColor=#82b366;" parent="1" vertex="1">
          <mxGeometry x="205.14" y="1116" width="120" height="80" as="geometry" />
        </mxCell>
        <mxCell id="Ol68pxwGy6gouUy0jPH--37" value="" style="endArrow=none;html=1;rounded=0;exitX=0.5;exitY=0;exitDx=0;exitDy=0;entryX=0.5;entryY=1;entryDx=0;entryDy=0;" parent="1" source="Ol68pxwGy6gouUy0jPH--1" target="Ol68pxwGy6gouUy0jPH--4" edge="1">
          <mxGeometry width="50" height="50" relative="1" as="geometry">
            <mxPoint x="30" y="540" as="sourcePoint" />
            <mxPoint x="80" y="490" as="targetPoint" />
          </mxGeometry>
        </mxCell>
        <mxCell id="Ol68pxwGy6gouUy0jPH--38" value="" style="endArrow=none;html=1;rounded=0;exitX=1;exitY=0.5;exitDx=0;exitDy=0;entryX=0.5;entryY=1;entryDx=0;entryDy=0;" parent="1" source="Ol68pxwGy6gouUy0jPH--1" target="Ol68pxwGy6gouUy0jPH--5" edge="1">
          <mxGeometry width="50" height="50" relative="1" as="geometry">
            <mxPoint x="210" y="30" as="sourcePoint" />
            <mxPoint x="210" y="-60" as="targetPoint" />
          </mxGeometry>
        </mxCell>
        <mxCell id="Ol68pxwGy6gouUy0jPH--39" value="" style="endArrow=none;html=1;rounded=0;exitX=1;exitY=0.5;exitDx=0;exitDy=0;entryX=0.5;entryY=0;entryDx=0;entryDy=0;" parent="1" source="Ol68pxwGy6gouUy0jPH--1" target="Ol68pxwGy6gouUy0jPH--7" edge="1">
          <mxGeometry width="50" height="50" relative="1" as="geometry">
            <mxPoint x="270" y="60" as="sourcePoint" />
            <mxPoint x="350" y="10" as="targetPoint" />
          </mxGeometry>
        </mxCell>
        <mxCell id="Ol68pxwGy6gouUy0jPH--40" value="" style="endArrow=none;html=1;rounded=0;exitX=0;exitY=0.5;exitDx=0;exitDy=0;entryX=0.5;entryY=1;entryDx=0;entryDy=0;" parent="1" source="Ol68pxwGy6gouUy0jPH--1" target="Ol68pxwGy6gouUy0jPH--2" edge="1">
          <mxGeometry width="50" height="50" relative="1" as="geometry">
            <mxPoint x="280" y="70" as="sourcePoint" />
            <mxPoint x="360" y="20" as="targetPoint" />
          </mxGeometry>
        </mxCell>
        <mxCell id="Ol68pxwGy6gouUy0jPH--42" value="" style="endArrow=none;html=1;rounded=0;entryX=0.5;entryY=0;entryDx=0;entryDy=0;exitX=0;exitY=0.5;exitDx=0;exitDy=0;" parent="1" source="Ol68pxwGy6gouUy0jPH--1" target="Ol68pxwGy6gouUy0jPH--6" edge="1">
          <mxGeometry width="50" height="50" relative="1" as="geometry">
            <mxPoint x="-50" y="60" as="sourcePoint" />
            <mxPoint x="80" y="10" as="targetPoint" />
          </mxGeometry>
        </mxCell>
        <mxCell id="Ol68pxwGy6gouUy0jPH--45" value="" style="endArrow=none;html=1;rounded=0;exitX=0.75;exitY=0;exitDx=0;exitDy=0;entryX=0.5;entryY=1;entryDx=0;entryDy=0;" parent="1" source="Ol68pxwGy6gouUy0jPH--28" target="Ol68pxwGy6gouUy0jPH--34" edge="1">
          <mxGeometry width="50" height="50" relative="1" as="geometry">
            <mxPoint x="435.14000000000004" y="796" as="sourcePoint" />
            <mxPoint x="555.1400000000001" y="896" as="targetPoint" />
          </mxGeometry>
        </mxCell>
        <mxCell id="Ol68pxwGy6gouUy0jPH--46" value="" style="endArrow=none;html=1;rounded=0;exitX=0.25;exitY=0;exitDx=0;exitDy=0;entryX=0.5;entryY=1;entryDx=0;entryDy=0;" parent="1" source="Ol68pxwGy6gouUy0jPH--28" target="Ol68pxwGy6gouUy0jPH--30" edge="1">
          <mxGeometry width="50" height="50" relative="1" as="geometry">
            <mxPoint x="435.14000000000004" y="796" as="sourcePoint" />
            <mxPoint x="485.14000000000004" y="746" as="targetPoint" />
          </mxGeometry>
        </mxCell>
        <mxCell id="Ol68pxwGy6gouUy0jPH--49" value="" style="endArrow=none;html=1;rounded=0;exitX=1;exitY=0.5;exitDx=0;exitDy=0;entryX=0;entryY=0.5;entryDx=0;entryDy=0;" parent="1" source="Ol68pxwGy6gouUy0jPH--28" target="Ol68pxwGy6gouUy0jPH--32" edge="1">
          <mxGeometry width="50" height="50" relative="1" as="geometry">
            <mxPoint x="435.14000000000004" y="796" as="sourcePoint" />
            <mxPoint x="485.14000000000004" y="746" as="targetPoint" />
          </mxGeometry>
        </mxCell>
        <mxCell id="Ol68pxwGy6gouUy0jPH--50" value="" style="endArrow=none;html=1;rounded=0;exitX=0.5;exitY=1;exitDx=0;exitDy=0;entryX=0.5;entryY=0;entryDx=0;entryDy=0;" parent="1" source="Ol68pxwGy6gouUy0jPH--28" target="Ol68pxwGy6gouUy0jPH--35" edge="1">
          <mxGeometry width="50" height="50" relative="1" as="geometry">
            <mxPoint x="435.14000000000004" y="796" as="sourcePoint" />
            <mxPoint x="485.14000000000004" y="746" as="targetPoint" />
          </mxGeometry>
        </mxCell>
        <mxCell id="Ol68pxwGy6gouUy0jPH--51" value="" style="endArrow=none;html=1;rounded=0;exitX=0;exitY=0.5;exitDx=0;exitDy=0;entryX=1;entryY=0.5;entryDx=0;entryDy=0;" parent="1" source="Ol68pxwGy6gouUy0jPH--28" target="Ol68pxwGy6gouUy0jPH--31" edge="1">
          <mxGeometry width="50" height="50" relative="1" as="geometry">
            <mxPoint x="435.14000000000004" y="796" as="sourcePoint" />
            <mxPoint x="255.14" y="891" as="targetPoint" />
          </mxGeometry>
        </mxCell>
        <mxCell id="Ol68pxwGy6gouUy0jPH--52" value="" style="endArrow=none;html=1;rounded=0;exitX=0.5;exitY=1;exitDx=0;exitDy=0;entryX=0.5;entryY=0;entryDx=0;entryDy=0;" parent="1" target="Ol68pxwGy6gouUy0jPH--33" edge="1">
          <mxGeometry width="50" height="50" relative="1" as="geometry">
            <mxPoint x="435.14000000000004" y="977.0000000000005" as="sourcePoint" />
            <mxPoint x="629.1400000000001" y="1117.0000000000005" as="targetPoint" />
          </mxGeometry>
        </mxCell>
        <mxCell id="Ol68pxwGy6gouUy0jPH--53" value="&lt;font style=&quot;font-size: 24px;&quot;&gt;ORDERS&lt;/font&gt;" style="rounded=0;whiteSpace=wrap;html=1;fillColor=#fff2cc;strokeColor=#d6b656;" parent="1" vertex="1">
          <mxGeometry x="1105.14" y="680" width="155" height="60" as="geometry" />
        </mxCell>
        <mxCell id="Ol68pxwGy6gouUy0jPH--55" value="&lt;font style=&quot;font-size: 24px;&quot;&gt;&lt;u&gt;OID&lt;/u&gt;&lt;/font&gt;" style="ellipse;whiteSpace=wrap;html=1;fillColor=#d5e8d4;strokeColor=#82b366;" parent="1" vertex="1">
          <mxGeometry x="955.1400000000001" y="585" width="120" height="80" as="geometry" />
        </mxCell>
        <mxCell id="Ol68pxwGy6gouUy0jPH--56" value="&lt;font style=&quot;font-size: 24px;&quot;&gt;ODate&lt;/font&gt;" style="ellipse;whiteSpace=wrap;html=1;fillColor=#d5e8d4;strokeColor=#82b366;" parent="1" vertex="1">
          <mxGeometry x="1295.14" y="585" width="120" height="80" as="geometry" />
        </mxCell>
        <mxCell id="Ol68pxwGy6gouUy0jPH--57" value="&lt;font style=&quot;font-size: 24px;&quot;&gt;OStatus&lt;/font&gt;" style="ellipse;whiteSpace=wrap;html=1;fillColor=#d5e8d4;strokeColor=#82b366;" parent="1" vertex="1">
          <mxGeometry x="955.1400000000001" y="760" width="120" height="80" as="geometry" />
        </mxCell>
        <mxCell id="Ol68pxwGy6gouUy0jPH--58" value="&lt;font style=&quot;font-size: 24px;&quot;&gt;OTotal&lt;/font&gt;" style="ellipse;whiteSpace=wrap;html=1;fillColor=#d5e8d4;strokeColor=#82b366;" parent="1" vertex="1">
          <mxGeometry x="1295.14" y="760" width="120" height="80" as="geometry" />
        </mxCell>
        <mxCell id="Ol68pxwGy6gouUy0jPH--64" value="&lt;font style=&quot;font-size: 24px;&quot;&gt;Contains&lt;/font&gt;" style="rhombus;whiteSpace=wrap;html=1;fillColor=#f8cecc;strokeColor=#b85450;" parent="1" vertex="1">
          <mxGeometry x="737.1400000000001" y="881" width="130" height="130" as="geometry" />
        </mxCell>
        <mxCell id="Ol68pxwGy6gouUy0jPH--65" value="" style="endArrow=none;html=1;rounded=0;exitX=1;exitY=0.5;exitDx=0;exitDy=0;" parent="1" source="Ol68pxwGy6gouUy0jPH--28" target="Ol68pxwGy6gouUy0jPH--64" edge="1">
          <mxGeometry width="50" height="50" relative="1" as="geometry">
            <mxPoint x="1085.14" y="906" as="sourcePoint" />
            <mxPoint x="1135.14" y="856" as="targetPoint" />
          </mxGeometry>
        </mxCell>
        <mxCell id="Ol68pxwGy6gouUy0jPH--74" value="" style="endArrow=none;html=1;rounded=0;exitX=1;exitY=0.5;exitDx=0;exitDy=0;entryX=0.5;entryY=1;entryDx=0;entryDy=0;" parent="1" source="Ol68pxwGy6gouUy0jPH--57" target="Ol68pxwGy6gouUy0jPH--53" edge="1">
          <mxGeometry width="50" height="50" relative="1" as="geometry">
            <mxPoint x="1085.14" y="910" as="sourcePoint" />
            <mxPoint x="1135.14" y="860" as="targetPoint" />
          </mxGeometry>
        </mxCell>
        <mxCell id="Ol68pxwGy6gouUy0jPH--75" value="" style="endArrow=none;html=1;rounded=0;exitX=0;exitY=0.5;exitDx=0;exitDy=0;entryX=0.5;entryY=1;entryDx=0;entryDy=0;" parent="1" source="Ol68pxwGy6gouUy0jPH--58" target="Ol68pxwGy6gouUy0jPH--53" edge="1">
          <mxGeometry width="50" height="50" relative="1" as="geometry">
            <mxPoint x="1085.14" y="810" as="sourcePoint" />
            <mxPoint x="1193.14" y="750" as="targetPoint" />
          </mxGeometry>
        </mxCell>
        <mxCell id="Ol68pxwGy6gouUy0jPH--76" value="" style="endArrow=none;html=1;rounded=0;exitX=0.5;exitY=0;exitDx=0;exitDy=0;entryX=1;entryY=0.5;entryDx=0;entryDy=0;" parent="1" source="Ol68pxwGy6gouUy0jPH--53" target="Ol68pxwGy6gouUy0jPH--55" edge="1">
          <mxGeometry width="50" height="50" relative="1" as="geometry">
            <mxPoint x="1095.14" y="820" as="sourcePoint" />
            <mxPoint x="1203.14" y="760" as="targetPoint" />
          </mxGeometry>
        </mxCell>
        <mxCell id="Ol68pxwGy6gouUy0jPH--77" value="" style="endArrow=none;html=1;rounded=0;exitX=0.5;exitY=0;exitDx=0;exitDy=0;entryX=0;entryY=0.5;entryDx=0;entryDy=0;" parent="1" source="Ol68pxwGy6gouUy0jPH--53" target="Ol68pxwGy6gouUy0jPH--56" edge="1">
          <mxGeometry width="50" height="50" relative="1" as="geometry">
            <mxPoint x="1105.14" y="830" as="sourcePoint" />
            <mxPoint x="1213.14" y="770" as="targetPoint" />
          </mxGeometry>
        </mxCell>
        <mxCell id="Ol68pxwGy6gouUy0jPH--94" style="edgeStyle=orthogonalEdgeStyle;rounded=0;orthogonalLoop=1;jettySize=auto;html=1;exitX=1;exitY=0.5;exitDx=0;exitDy=0;entryX=0;entryY=0.5;entryDx=0;entryDy=0;" parent="1" source="Ol68pxwGy6gouUy0jPH--78" target="Ol68pxwGy6gouUy0jPH--80" edge="1">
          <mxGeometry relative="1" as="geometry">
            <mxPoint x="1490" y="525" as="sourcePoint" />
          </mxGeometry>
        </mxCell>
        <mxCell id="Ol68pxwGy6gouUy0jPH--78" value="&lt;font style=&quot;font-size: 24px;&quot;&gt;Has&lt;/font&gt;" style="rhombus;whiteSpace=wrap;html=1;fillColor=#f8cecc;strokeColor=#b85450;" parent="1" vertex="1">
          <mxGeometry x="1480" y="645" width="130" height="130" as="geometry" />
        </mxCell>
        <mxCell id="Ol68pxwGy6gouUy0jPH--97" style="edgeStyle=orthogonalEdgeStyle;rounded=0;orthogonalLoop=1;jettySize=auto;html=1;entryX=0.5;entryY=1;entryDx=0;entryDy=0;" parent="1" source="Ol68pxwGy6gouUy0jPH--79" target="Ol68pxwGy6gouUy0jPH--53" edge="1">
          <mxGeometry relative="1" as="geometry" />
        </mxCell>
        <mxCell id="Ol68pxwGy6gouUy0jPH--79" value="&lt;font style=&quot;font-size: 24px;&quot;&gt;Payment&lt;/font&gt;" style="rhombus;whiteSpace=wrap;html=1;fillColor=#f8cecc;strokeColor=#b85450;" parent="1" vertex="1">
          <mxGeometry x="1118" y="1122" width="130" height="130" as="geometry" />
        </mxCell>
        <mxCell id="Ol68pxwGy6gouUy0jPH--80" value="&lt;font style=&quot;font-size: 24px;&quot;&gt;DELIVERY&lt;/font&gt;" style="rounded=0;whiteSpace=wrap;html=1;fillColor=#fff2cc;strokeColor=#d6b656;" parent="1" vertex="1">
          <mxGeometry x="1868" y="679.5" width="180" height="60" as="geometry" />
        </mxCell>
        <mxCell id="Ol68pxwGy6gouUy0jPH--83" value="&lt;font style=&quot;font-size: 24px;&quot;&gt;UAddress&lt;/font&gt;" style="ellipse;whiteSpace=wrap;html=1;fillColor=#d5e8d4;strokeColor=#82b366;" parent="1" vertex="1">
          <mxGeometry x="1772" y="828.5" width="120" height="80" as="geometry" />
        </mxCell>
        <mxCell id="Ol68pxwGy6gouUy0jPH--84" value="&lt;font style=&quot;font-size: 24px;&quot;&gt;UCity&lt;/font&gt;" style="ellipse;whiteSpace=wrap;html=1;fillColor=#d5e8d4;strokeColor=#82b366;" parent="1" vertex="1">
          <mxGeometry x="2010" y="828.5" width="120" height="80" as="geometry" />
        </mxCell>
        <mxCell id="Ol68pxwGy6gouUy0jPH--85" value="&lt;font style=&quot;font-size: 24px;&quot;&gt;&lt;u&gt;AID&lt;/u&gt;&lt;/font&gt;" style="ellipse;whiteSpace=wrap;html=1;fillColor=#d5e8d4;strokeColor=#82b366;" parent="1" vertex="1">
          <mxGeometry x="2210" y="571" width="120" height="80" as="geometry" />
        </mxCell>
        <mxCell id="Ol68pxwGy6gouUy0jPH--86" value="&lt;span style=&quot;font-size: 24px;&quot;&gt;UPin&lt;/span&gt;" style="ellipse;whiteSpace=wrap;html=1;fillColor=#d5e8d4;strokeColor=#82b366;" parent="1" vertex="1">
          <mxGeometry x="2210" y="768.5" width="120" height="80" as="geometry" />
        </mxCell>
        <mxCell id="Ol68pxwGy6gouUy0jPH--87" value="" style="endArrow=none;html=1;rounded=0;entryX=0;entryY=0.5;entryDx=0;entryDy=0;" parent="1" target="Ol68pxwGy6gouUy0jPH--85" edge="1">
          <mxGeometry width="50" height="50" relative="1" as="geometry">
            <mxPoint x="2050" y="709" as="sourcePoint" />
            <mxPoint x="1340" y="458.5" as="targetPoint" />
          </mxGeometry>
        </mxCell>
        <mxCell id="Ol68pxwGy6gouUy0jPH--90" value="" style="endArrow=none;html=1;rounded=0;exitX=0.5;exitY=1;exitDx=0;exitDy=0;entryX=0.5;entryY=0;entryDx=0;entryDy=0;" parent="1" source="Ol68pxwGy6gouUy0jPH--80" target="Ol68pxwGy6gouUy0jPH--83" edge="1">
          <mxGeometry width="50" height="50" relative="1" as="geometry">
            <mxPoint x="1861" y="738.5" as="sourcePoint" />
            <mxPoint x="1770" y="738.5" as="targetPoint" />
          </mxGeometry>
        </mxCell>
        <mxCell id="Ol68pxwGy6gouUy0jPH--91" value="" style="endArrow=none;html=1;rounded=0;entryX=0.5;entryY=0;entryDx=0;entryDy=0;exitX=0.5;exitY=1;exitDx=0;exitDy=0;" parent="1" source="Ol68pxwGy6gouUy0jPH--80" target="Ol68pxwGy6gouUy0jPH--84" edge="1">
          <mxGeometry width="50" height="50" relative="1" as="geometry">
            <mxPoint x="1990" y="753.5" as="sourcePoint" />
            <mxPoint x="2190" y="718.5" as="targetPoint" />
          </mxGeometry>
        </mxCell>
        <mxCell id="Ol68pxwGy6gouUy0jPH--92" value="" style="endArrow=none;html=1;rounded=0;exitX=1;exitY=0.5;exitDx=0;exitDy=0;entryX=0;entryY=0.5;entryDx=0;entryDy=0;" parent="1" source="Ol68pxwGy6gouUy0jPH--80" target="Ol68pxwGy6gouUy0jPH--86" edge="1">
          <mxGeometry width="50" height="50" relative="1" as="geometry">
            <mxPoint x="1881" y="758.5" as="sourcePoint" />
            <mxPoint x="1790" y="758.5" as="targetPoint" />
          </mxGeometry>
        </mxCell>
        <mxCell id="Ol68pxwGy6gouUy0jPH--95" value="&lt;font style=&quot;font-size: 24px;&quot;&gt;PAYMENTDETAILS&lt;/font&gt;" style="rounded=0;whiteSpace=wrap;html=1;fillColor=#fff2cc;strokeColor=#d6b656;" parent="1" vertex="1">
          <mxGeometry x="1519.9999999999998" y="1157" width="258" height="60" as="geometry" />
        </mxCell>
        <mxCell id="Ol68pxwGy6gouUy0jPH--98" value="&lt;span style=&quot;font-size: 24px;&quot;&gt;CardNo&lt;/span&gt;" style="ellipse;whiteSpace=wrap;html=1;fillColor=#d5e8d4;strokeColor=#82b366;" parent="1" vertex="1">
          <mxGeometry x="1486" y="1022" width="120" height="80" as="geometry" />
        </mxCell>
        <mxCell id="Ol68pxwGy6gouUy0jPH--99" value="&lt;span style=&quot;font-size: 24px;&quot;&gt;CName&lt;/span&gt;" style="ellipse;whiteSpace=wrap;html=1;fillColor=#d5e8d4;strokeColor=#82b366;" parent="1" vertex="1">
          <mxGeometry x="1687.9999999999998" y="1022" width="120" height="80" as="geometry" />
        </mxCell>
        <mxCell id="Ol68pxwGy6gouUy0jPH--100" value="&lt;span style=&quot;font-size: 24px;&quot;&gt;CExpiry&lt;/span&gt;" style="ellipse;whiteSpace=wrap;html=1;fillColor=#d5e8d4;strokeColor=#82b366;" parent="1" vertex="1">
          <mxGeometry x="1498" y="1272" width="120" height="80" as="geometry" />
        </mxCell>
        <mxCell id="Ol68pxwGy6gouUy0jPH--101" value="" style="endArrow=none;html=1;rounded=0;entryX=0.5;entryY=0;entryDx=0;entryDy=0;exitX=0.5;exitY=1;exitDx=0;exitDy=0;" parent="1" source="Ol68pxwGy6gouUy0jPH--98" target="Ol68pxwGy6gouUy0jPH--95" edge="1">
          <mxGeometry width="50" height="50" relative="1" as="geometry">
            <mxPoint x="728.0000000000001" y="1402" as="sourcePoint" />
            <mxPoint x="778.0000000000001" y="1352" as="targetPoint" />
          </mxGeometry>
        </mxCell>
        <mxCell id="Ol68pxwGy6gouUy0jPH--102" value="" style="endArrow=none;html=1;rounded=0;exitX=0.5;exitY=1;exitDx=0;exitDy=0;entryX=0.5;entryY=0;entryDx=0;entryDy=0;" parent="1" source="Ol68pxwGy6gouUy0jPH--99" target="Ol68pxwGy6gouUy0jPH--95" edge="1">
          <mxGeometry width="50" height="50" relative="1" as="geometry">
            <mxPoint x="1478" y="1102" as="sourcePoint" />
            <mxPoint x="1577.9999999999998" y="852" as="targetPoint" />
          </mxGeometry>
        </mxCell>
        <mxCell id="Ol68pxwGy6gouUy0jPH--103" value="" style="endArrow=none;html=1;rounded=0;entryX=0.5;entryY=1;entryDx=0;entryDy=0;exitX=0.5;exitY=0;exitDx=0;exitDy=0;" parent="1" source="Ol68pxwGy6gouUy0jPH--100" target="Ol68pxwGy6gouUy0jPH--95" edge="1">
          <mxGeometry width="50" height="50" relative="1" as="geometry">
            <mxPoint x="1488" y="1112" as="sourcePoint" />
            <mxPoint x="1617.9999999999998" y="1177" as="targetPoint" />
          </mxGeometry>
        </mxCell>
        <mxCell id="Ol68pxwGy6gouUy0jPH--107" style="edgeStyle=orthogonalEdgeStyle;rounded=0;orthogonalLoop=1;jettySize=auto;html=1;exitX=0.5;exitY=1;exitDx=0;exitDy=0;entryX=0.5;entryY=0;entryDx=0;entryDy=0;" parent="1" source="Ol68pxwGy6gouUy0jPH--104" target="Ol68pxwGy6gouUy0jPH--106" edge="1">
          <mxGeometry relative="1" as="geometry">
            <mxPoint x="1556" y="-124.99999999999955" as="sourcePoint" />
          </mxGeometry>
        </mxCell>
        <mxCell id="Ol68pxwGy6gouUy0jPH--104" value="&lt;font style=&quot;font-size: 24px;&quot;&gt;Manage&lt;/font&gt;" style="rhombus;whiteSpace=wrap;html=1;fillColor=#f8cecc;strokeColor=#b85450;" parent="1" vertex="1">
          <mxGeometry x="-405" y="340" width="130" height="130" as="geometry" />
        </mxCell>
        <mxCell id="Ol68pxwGy6gouUy0jPH--106" value="&lt;font style=&quot;font-size: 24px;&quot;&gt;STORE&lt;/font&gt;" style="rounded=0;whiteSpace=wrap;html=1;fillColor=#fff2cc;strokeColor=#d6b656;" parent="1" vertex="1">
          <mxGeometry x="-400" y="914" width="120" height="60" as="geometry" />
        </mxCell>
        <mxCell id="Ol68pxwGy6gouUy0jPH--124" value="&lt;font style=&quot;font-size: 24px;&quot;&gt;&lt;u&gt;SID&lt;/u&gt;&lt;/font&gt;" style="ellipse;whiteSpace=wrap;html=1;fillColor=#d5e8d4;strokeColor=#82b366;" parent="1" vertex="1">
          <mxGeometry x="-610" y="838.5" width="120" height="80" as="geometry" />
        </mxCell>
        <mxCell id="Ol68pxwGy6gouUy0jPH--125" value="&lt;font style=&quot;font-size: 24px;&quot;&gt;SName&lt;/font&gt;" style="ellipse;whiteSpace=wrap;html=1;fillColor=#d5e8d4;strokeColor=#82b366;" parent="1" vertex="1">
          <mxGeometry x="-610" y="984" width="120" height="80" as="geometry" />
        </mxCell>
        <mxCell id="Ol68pxwGy6gouUy0jPH--126" value="&lt;font style=&quot;font-size: 24px;&quot;&gt;SStreet&lt;/font&gt;" style="ellipse;whiteSpace=wrap;html=1;fillColor=#d5e8d4;strokeColor=#82b366;" parent="1" vertex="1">
          <mxGeometry x="-320" y="1077" width="120" height="80" as="geometry" />
        </mxCell>
        <mxCell id="Ol68pxwGy6gouUy0jPH--127" value="&lt;font style=&quot;font-size: 24px;&quot;&gt;SCity&lt;/font&gt;" style="ellipse;whiteSpace=wrap;html=1;fillColor=#d5e8d4;strokeColor=#82b366;" parent="1" vertex="1">
          <mxGeometry x="-500" y="1077" width="120" height="80" as="geometry" />
        </mxCell>
        <mxCell id="Ol68pxwGy6gouUy0jPH--128" value="&lt;font style=&quot;font-size: 24px;&quot;&gt;SState&lt;/font&gt;" style="ellipse;whiteSpace=wrap;html=1;fillColor=#d5e8d4;strokeColor=#82b366;" parent="1" vertex="1">
          <mxGeometry x="-240" y="799" width="120" height="80" as="geometry" />
        </mxCell>
        <mxCell id="Ol68pxwGy6gouUy0jPH--131" value="&lt;font style=&quot;font-size: 24px;&quot;&gt;Has&lt;/font&gt;" style="rhombus;whiteSpace=wrap;html=1;fillColor=#f8cecc;strokeColor=#b85450;" parent="1" vertex="1">
          <mxGeometry x="915.14" y="355" width="130" height="130" as="geometry" />
        </mxCell>
        <mxCell id="Ol68pxwGy6gouUy0jPH--134" value="" style="endArrow=none;html=1;rounded=0;exitX=1;exitY=0.5;exitDx=0;exitDy=0;entryX=0;entryY=0.5;entryDx=0;entryDy=0;" parent="1" source="Ol68pxwGy6gouUy0jPH--125" target="Ol68pxwGy6gouUy0jPH--106" edge="1">
          <mxGeometry width="50" height="50" relative="1" as="geometry">
            <mxPoint x="-350" y="1099" as="sourcePoint" />
            <mxPoint x="-300" y="1049" as="targetPoint" />
          </mxGeometry>
        </mxCell>
        <mxCell id="Ol68pxwGy6gouUy0jPH--135" value="" style="endArrow=none;html=1;rounded=0;exitX=0.5;exitY=0;exitDx=0;exitDy=0;entryX=0.5;entryY=1;entryDx=0;entryDy=0;" parent="1" source="Ol68pxwGy6gouUy0jPH--126" target="Ol68pxwGy6gouUy0jPH--106" edge="1">
          <mxGeometry width="50" height="50" relative="1" as="geometry">
            <mxPoint x="-350" y="1099" as="sourcePoint" />
            <mxPoint x="-60" y="939" as="targetPoint" />
          </mxGeometry>
        </mxCell>
        <mxCell id="Ol68pxwGy6gouUy0jPH--137" value="" style="endArrow=none;html=1;rounded=0;exitX=0.5;exitY=0;exitDx=0;exitDy=0;entryX=0;entryY=0.5;entryDx=0;entryDy=0;" parent="1" source="Ol68pxwGy6gouUy0jPH--106" target="Ol68pxwGy6gouUy0jPH--128" edge="1">
          <mxGeometry width="50" height="50" relative="1" as="geometry">
            <mxPoint x="-350" y="1099" as="sourcePoint" />
            <mxPoint x="-300" y="1049" as="targetPoint" />
          </mxGeometry>
        </mxCell>
        <mxCell id="Ol68pxwGy6gouUy0jPH--138" value="" style="endArrow=none;html=1;rounded=0;entryX=0;entryY=0.5;entryDx=0;entryDy=0;exitX=1;exitY=0.5;exitDx=0;exitDy=0;" parent="1" source="Ol68pxwGy6gouUy0jPH--124" target="Ol68pxwGy6gouUy0jPH--106" edge="1">
          <mxGeometry width="50" height="50" relative="1" as="geometry">
            <mxPoint x="-350" y="1099" as="sourcePoint" />
            <mxPoint x="-300" y="1049" as="targetPoint" />
          </mxGeometry>
        </mxCell>
        <mxCell id="9fZjzif5L4TtWxuKSIS0-1" value="&lt;font style=&quot;font-size: 24px;&quot;&gt;SType&lt;/font&gt;" style="ellipse;whiteSpace=wrap;html=1;fillColor=#d5e8d4;strokeColor=#82b366;" parent="1" vertex="1">
          <mxGeometry x="-110" y="500" width="120" height="80" as="geometry" />
        </mxCell>
        <mxCell id="J6AZEy6HlaFJI97Z1WpG-1" value="" style="endArrow=none;html=1;rounded=0;exitX=0.5;exitY=0;exitDx=0;exitDy=0;entryX=0.5;entryY=1;entryDx=0;entryDy=0;" parent="1" source="Ol68pxwGy6gouUy0jPH--26" target="Ol68pxwGy6gouUy0jPH--17" edge="1">
          <mxGeometry width="50" height="50" relative="1" as="geometry">
            <mxPoint x="775.1400000000001" y="580" as="sourcePoint" />
            <mxPoint x="825.1400000000001" y="530" as="targetPoint" />
          </mxGeometry>
        </mxCell>
        <mxCell id="KYkgQAniZ8i4tshqLK_e-5" style="edgeStyle=orthogonalEdgeStyle;rounded=0;orthogonalLoop=1;jettySize=auto;html=1;exitX=0;exitY=0.5;exitDx=0;exitDy=0;entryX=0.75;entryY=1;entryDx=0;entryDy=0;" parent="1" source="KYkgQAniZ8i4tshqLK_e-1" target="Ol68pxwGy6gouUy0jPH--17" edge="1">
          <mxGeometry relative="1" as="geometry">
            <Array as="points">
              <mxPoint x="535" y="695" />
              <mxPoint x="535" y="550" />
              <mxPoint x="465" y="550" />
            </Array>
          </mxGeometry>
        </mxCell>
        <mxCell id="KYkgQAniZ8i4tshqLK_e-1" value="&lt;font style=&quot;font-size: 24px;&quot;&gt;Places&lt;/font&gt;" style="rhombus;whiteSpace=wrap;html=1;fillColor=#f8cecc;strokeColor=#b85450;" parent="1" vertex="1">
          <mxGeometry x="635.1400000000001" y="628" width="130" height="130" as="geometry" />
        </mxCell>
        <mxCell id="KYkgQAniZ8i4tshqLK_e-4" value="" style="endArrow=none;html=1;rounded=0;exitX=1;exitY=0.5;exitDx=0;exitDy=0;entryX=0;entryY=0.25;entryDx=0;entryDy=0;" parent="1" source="KYkgQAniZ8i4tshqLK_e-1" target="Ol68pxwGy6gouUy0jPH--53" edge="1">
          <mxGeometry width="50" height="50" relative="1" as="geometry">
            <mxPoint x="855.1400000000001" y="510" as="sourcePoint" />
            <mxPoint x="905.1400000000001" y="460" as="targetPoint" />
          </mxGeometry>
        </mxCell>
        <mxCell id="WydWcIYiueC9fm4hFqnh-1" value="" style="endArrow=none;html=1;rounded=0;exitX=1;exitY=0.5;exitDx=0;exitDy=0;entryX=0;entryY=0.5;entryDx=0;entryDy=0;" parent="1" source="Ol68pxwGy6gouUy0jPH--64" target="Ol68pxwGy6gouUy0jPH--53" edge="1">
          <mxGeometry width="50" height="50" relative="1" as="geometry">
            <mxPoint x="1015.1400000000001" y="880" as="sourcePoint" />
            <mxPoint x="1065.14" y="830" as="targetPoint" />
            <Array as="points">
              <mxPoint x="905" y="946" />
              <mxPoint x="905.1400000000001" y="710" />
            </Array>
          </mxGeometry>
        </mxCell>
        <mxCell id="WydWcIYiueC9fm4hFqnh-4" value="&lt;font style=&quot;font-size: 18px;&quot;&gt;1..M&lt;/font&gt;" style="text;strokeColor=none;fillColor=none;align=left;verticalAlign=middle;spacingLeft=4;spacingRight=4;overflow=hidden;points=[[0,0.5],[1,0.5]];portConstraint=eastwest;rotatable=0;whiteSpace=wrap;html=1;" parent="1" vertex="1">
          <mxGeometry x="1968" y="601" width="80" height="30" as="geometry" />
        </mxCell>
        <mxCell id="WydWcIYiueC9fm4hFqnh-7" value="&lt;font style=&quot;font-size: 18px;&quot;&gt;0..M&lt;/font&gt;" style="text;strokeColor=none;fillColor=none;align=left;verticalAlign=middle;spacingLeft=4;spacingRight=4;overflow=hidden;points=[[0,0.5],[1,0.5]];portConstraint=eastwest;rotatable=0;whiteSpace=wrap;html=1;" parent="1" vertex="1">
          <mxGeometry x="365.14" y="866" width="80" height="30" as="geometry" />
        </mxCell>
        <mxCell id="WydWcIYiueC9fm4hFqnh-8" value="&lt;font style=&quot;font-size: 18px;&quot;&gt;1..1&lt;/font&gt;" style="text;strokeColor=none;fillColor=none;align=left;verticalAlign=middle;spacingLeft=4;spacingRight=4;overflow=hidden;points=[[0,0.5],[1,0.5]];portConstraint=eastwest;rotatable=0;whiteSpace=wrap;html=1;" parent="1" vertex="1">
          <mxGeometry x="-190" y="365" width="80" height="30" as="geometry" />
        </mxCell>
        <mxCell id="WydWcIYiueC9fm4hFqnh-10" value="&lt;font style=&quot;font-size: 18px;&quot;&gt;1..1&lt;/font&gt;" style="text;strokeColor=none;fillColor=none;align=left;verticalAlign=middle;spacingLeft=4;spacingRight=4;overflow=hidden;points=[[0,0.5],[1,0.5]];portConstraint=eastwest;rotatable=0;whiteSpace=wrap;html=1;" parent="1" vertex="1">
          <mxGeometry x="470.0000000000001" y="480" width="80" height="30" as="geometry" />
        </mxCell>
        <mxCell id="WydWcIYiueC9fm4hFqnh-11" value="&lt;font style=&quot;font-size: 18px;&quot;&gt;1..M&lt;/font&gt;" style="text;strokeColor=none;fillColor=none;align=left;verticalAlign=middle;spacingLeft=4;spacingRight=4;overflow=hidden;points=[[0,0.5],[1,0.5]];portConstraint=eastwest;rotatable=0;whiteSpace=wrap;html=1;" parent="1" vertex="1">
          <mxGeometry x="1045.14" y="665" width="50" height="30" as="geometry" />
        </mxCell>
        <mxCell id="WydWcIYiueC9fm4hFqnh-12" value="&lt;font style=&quot;font-size: 18px;&quot;&gt;1..M&lt;/font&gt;" style="text;strokeColor=none;fillColor=none;align=left;verticalAlign=middle;spacingLeft=4;spacingRight=4;overflow=hidden;points=[[0,0.5],[1,0.5]];portConstraint=eastwest;rotatable=0;whiteSpace=wrap;html=1;" parent="1" vertex="1">
          <mxGeometry x="520.1400000000001" y="916" width="50" height="30" as="geometry" />
        </mxCell>
        <mxCell id="WydWcIYiueC9fm4hFqnh-13" value="&lt;font style=&quot;font-size: 18px;&quot;&gt;0..M&lt;/font&gt;" style="text;strokeColor=none;fillColor=none;align=left;verticalAlign=middle;spacingLeft=4;spacingRight=4;overflow=hidden;points=[[0,0.5],[1,0.5]];portConstraint=eastwest;rotatable=0;whiteSpace=wrap;html=1;" parent="1" vertex="1">
          <mxGeometry x="1045.14" y="720" width="50" height="30" as="geometry" />
        </mxCell>
        <mxCell id="WydWcIYiueC9fm4hFqnh-14" value="&lt;font style=&quot;font-size: 18px;&quot;&gt;1..1&lt;/font&gt;" style="text;strokeColor=none;fillColor=none;align=left;verticalAlign=middle;spacingLeft=4;spacingRight=4;overflow=hidden;points=[[0,0.5],[1,0.5]];portConstraint=eastwest;rotatable=0;whiteSpace=wrap;html=1;" parent="1" vertex="1">
          <mxGeometry x="-380" y="849" width="80" height="30" as="geometry" />
        </mxCell>
        <mxCell id="WydWcIYiueC9fm4hFqnh-15" value="&lt;font style=&quot;font-size: 18px;&quot;&gt;1..1&lt;/font&gt;" style="text;strokeColor=none;fillColor=none;align=left;verticalAlign=middle;spacingLeft=4;spacingRight=4;overflow=hidden;points=[[0,0.5],[1,0.5]];portConstraint=eastwest;rotatable=0;whiteSpace=wrap;html=1;" parent="1" vertex="1">
          <mxGeometry x="1448" y="1152" width="80" height="30" as="geometry" />
        </mxCell>
        <mxCell id="WydWcIYiueC9fm4hFqnh-17" value="&lt;font style=&quot;font-size: 18px;&quot;&gt;1..M&lt;/font&gt;" style="text;strokeColor=none;fillColor=none;align=left;verticalAlign=middle;spacingLeft=4;spacingRight=4;overflow=hidden;points=[[0,0.5],[1,0.5]];portConstraint=eastwest;rotatable=0;whiteSpace=wrap;html=1;" parent="1" vertex="1">
          <mxGeometry x="1274.14" y="674" width="80" height="30" as="geometry" />
        </mxCell>
        <mxCell id="WydWcIYiueC9fm4hFqnh-18" value="&lt;font style=&quot;font-size: 18px;&quot;&gt;1..1&lt;/font&gt;" style="text;strokeColor=none;fillColor=none;align=left;verticalAlign=middle;spacingLeft=4;spacingRight=4;overflow=hidden;points=[[0,0.5],[1,0.5]];portConstraint=eastwest;rotatable=0;whiteSpace=wrap;html=1;" parent="1" vertex="1">
          <mxGeometry x="1808" y="670" width="80" height="30" as="geometry" />
        </mxCell>
        <mxCell id="Nt6avx-49yO2hUIwVl1T-1" value="&lt;span style=&quot;font-size: 18px;&quot;&gt;0..M&lt;/span&gt;" style="text;strokeColor=none;fillColor=none;align=left;verticalAlign=middle;spacingLeft=4;spacingRight=4;overflow=hidden;points=[[0,0.5],[1,0.5]];portConstraint=eastwest;rotatable=0;whiteSpace=wrap;html=1;" parent="1" vertex="1">
          <mxGeometry x="375.14" y="455" width="80" height="30" as="geometry" />
        </mxCell>
        <mxCell id="Nt6avx-49yO2hUIwVl1T-4" value="&lt;span style=&quot;font-size: 24px;&quot;&gt;CCVV&lt;/span&gt;" style="ellipse;whiteSpace=wrap;html=1;fillColor=#d5e8d4;strokeColor=#82b366;" parent="1" vertex="1">
          <mxGeometry x="1687.9999999999998" y="1272" width="120" height="80" as="geometry" />
        </mxCell>
        <mxCell id="Nt6avx-49yO2hUIwVl1T-5" value="" style="endArrow=none;html=1;rounded=0;exitX=0.5;exitY=1;exitDx=0;exitDy=0;entryX=0.5;entryY=0;entryDx=0;entryDy=0;" parent="1" source="Ol68pxwGy6gouUy0jPH--95" target="Nt6avx-49yO2hUIwVl1T-4" edge="1">
          <mxGeometry width="50" height="50" relative="1" as="geometry">
            <mxPoint x="1388" y="1182" as="sourcePoint" />
            <mxPoint x="1438" y="1132" as="targetPoint" />
          </mxGeometry>
        </mxCell>
        <mxCell id="Nt6avx-49yO2hUIwVl1T-6" value="" style="endArrow=none;html=1;rounded=0;exitX=1;exitY=0.5;exitDx=0;exitDy=0;" parent="1" source="Ol68pxwGy6gouUy0jPH--95" edge="1">
          <mxGeometry width="50" height="50" relative="1" as="geometry">
            <mxPoint x="1547.9999999999998" y="1302" as="sourcePoint" />
            <mxPoint x="1858" y="1187" as="targetPoint" />
          </mxGeometry>
        </mxCell>
        <mxCell id="Nt6avx-49yO2hUIwVl1T-7" value="&lt;span style=&quot;font-size: 24px;&quot;&gt;&lt;u&gt;PayID&lt;/u&gt;&lt;/span&gt;" style="ellipse;whiteSpace=wrap;html=1;fillColor=#d5e8d4;strokeColor=#82b366;" parent="1" vertex="1">
          <mxGeometry x="1858" y="1147" width="120" height="80" as="geometry" />
        </mxCell>
        <mxCell id="Nt6avx-49yO2hUIwVl1T-9" value="&lt;font style=&quot;font-size: 24px;&quot;&gt;D&lt;/font&gt;" style="ellipse;whiteSpace=wrap;html=1;aspect=fixed;" parent="1" vertex="1">
          <mxGeometry x="237.5" y="210" width="55" height="55" as="geometry" />
        </mxCell>
        <mxCell id="Nt6avx-49yO2hUIwVl1T-13" value="" style="endArrow=classic;html=1;rounded=0;exitX=1;exitY=0.5;exitDx=0;exitDy=0;entryX=0;entryY=0.5;entryDx=0;entryDy=0;" parent="1" source="Ol68pxwGy6gouUy0jPH--79" target="Ol68pxwGy6gouUy0jPH--95" edge="1">
          <mxGeometry width="50" height="50" relative="1" as="geometry">
            <mxPoint x="808.0000000000001" y="1422" as="sourcePoint" />
            <mxPoint x="858" y="1372" as="targetPoint" />
          </mxGeometry>
        </mxCell>
        <mxCell id="Nt6avx-49yO2hUIwVl1T-15" value="" style="endArrow=classic;html=1;rounded=0;entryX=0.5;entryY=0;entryDx=0;entryDy=0;" parent="1" target="Ol68pxwGy6gouUy0jPH--18" edge="1">
          <mxGeometry width="50" height="50" relative="1" as="geometry">
            <mxPoint x="200" y="260" as="sourcePoint" />
            <mxPoint x="160" y="250" as="targetPoint" />
          </mxGeometry>
        </mxCell>
        <mxCell id="Nt6avx-49yO2hUIwVl1T-16" value="" style="endArrow=classic;html=1;rounded=0;exitX=1;exitY=0.5;exitDx=0;exitDy=0;entryX=0;entryY=0.5;entryDx=0;entryDy=0;" parent="1" source="Ol68pxwGy6gouUy0jPH--104" target="Ol68pxwGy6gouUy0jPH--18" edge="1">
          <mxGeometry width="50" height="50" relative="1" as="geometry">
            <mxPoint x="720" y="300" as="sourcePoint" />
            <mxPoint x="770" y="250" as="targetPoint" />
          </mxGeometry>
        </mxCell>
        <mxCell id="Nt6avx-49yO2hUIwVl1T-17" value="" style="endArrow=none;html=1;rounded=0;exitX=0.5;exitY=1;exitDx=0;exitDy=0;entryX=0.5;entryY=0;entryDx=0;entryDy=0;" parent="1" source="Ol68pxwGy6gouUy0jPH--18" target="9fZjzif5L4TtWxuKSIS0-1" edge="1">
          <mxGeometry width="50" height="50" relative="1" as="geometry">
            <mxPoint x="720" y="300" as="sourcePoint" />
            <mxPoint x="770" y="250" as="targetPoint" />
          </mxGeometry>
        </mxCell>
        <mxCell id="Nt6avx-49yO2hUIwVl1T-19" value="" style="endArrow=none;html=1;rounded=0;exitX=0.5;exitY=1;exitDx=0;exitDy=0;entryX=0.5;entryY=0;entryDx=0;entryDy=0;" parent="1" source="Ol68pxwGy6gouUy0jPH--106" target="Ol68pxwGy6gouUy0jPH--127" edge="1">
          <mxGeometry width="50" height="50" relative="1" as="geometry">
            <mxPoint x="300" y="920" as="sourcePoint" />
            <mxPoint x="350" y="870" as="targetPoint" />
          </mxGeometry>
        </mxCell>
        <mxCell id="Nt6avx-49yO2hUIwVl1T-22" value="&lt;font style=&quot;font-size: 18px;&quot;&gt;1..1&lt;/font&gt;" style="text;strokeColor=none;fillColor=none;align=left;verticalAlign=middle;spacingLeft=4;spacingRight=4;overflow=hidden;points=[[0,0.5],[1,0.5]];portConstraint=eastwest;rotatable=0;whiteSpace=wrap;html=1;" parent="1" vertex="1">
          <mxGeometry x="1195.14" y="775" width="80" height="30" as="geometry" />
        </mxCell>
        <mxCell id="Nt6avx-49yO2hUIwVl1T-23" value="&lt;font style=&quot;font-size: 18px;&quot;&gt;1..1&lt;/font&gt;" style="text;strokeColor=none;fillColor=none;align=left;verticalAlign=middle;spacingLeft=4;spacingRight=4;overflow=hidden;points=[[0,0.5],[1,0.5]];portConstraint=eastwest;rotatable=0;whiteSpace=wrap;html=1;" parent="1" vertex="1">
          <mxGeometry x="515.1400000000001" y="425" width="80" height="30" as="geometry" />
        </mxCell>
        <mxCell id="Nt6avx-49yO2hUIwVl1T-24" value="" style="endArrow=none;html=1;rounded=0;entryX=0.5;entryY=0;entryDx=0;entryDy=0;exitX=1;exitY=0.5;exitDx=0;exitDy=0;" parent="1" source="Ol68pxwGy6gouUy0jPH--131" target="Ol68pxwGy6gouUy0jPH--80" edge="1">
          <mxGeometry width="50" height="50" relative="1" as="geometry">
            <mxPoint x="1045.1400000000003" y="430" as="sourcePoint" />
            <mxPoint x="1958.000000000001" y="707.5" as="targetPoint" />
            <Array as="points">
              <mxPoint x="1958" y="418" />
            </Array>
          </mxGeometry>
        </mxCell>
        <mxCell id="Nt6avx-49yO2hUIwVl1T-27" style="edgeStyle=orthogonalEdgeStyle;rounded=0;orthogonalLoop=1;jettySize=auto;html=1;exitX=0;exitY=0.5;exitDx=0;exitDy=0;entryX=1;entryY=0.5;entryDx=0;entryDy=0;" parent="1" source="Nt6avx-49yO2hUIwVl1T-25" target="Ol68pxwGy6gouUy0jPH--106" edge="1">
          <mxGeometry relative="1" as="geometry" />
        </mxCell>
        <mxCell id="Nt6avx-49yO2hUIwVl1T-25" value="&lt;font style=&quot;font-size: 24px;&quot;&gt;Contains&lt;/font&gt;" style="rhombus;whiteSpace=wrap;html=1;fillColor=#f8cecc;strokeColor=#b85450;" parent="1" vertex="1">
          <mxGeometry x="-89.99999999999989" y="879" width="130" height="130" as="geometry" />
        </mxCell>
        <mxCell id="Nt6avx-49yO2hUIwVl1T-28" value="" style="endArrow=none;html=1;rounded=0;exitX=1;exitY=0.5;exitDx=0;exitDy=0;entryX=0;entryY=0.5;entryDx=0;entryDy=0;" parent="1" source="Nt6avx-49yO2hUIwVl1T-25" target="Ol68pxwGy6gouUy0jPH--28" edge="1">
          <mxGeometry width="50" height="50" relative="1" as="geometry">
            <mxPoint x="490" y="760" as="sourcePoint" />
            <mxPoint x="540" y="710" as="targetPoint" />
          </mxGeometry>
        </mxCell>
        <mxCell id="Nt6avx-49yO2hUIwVl1T-29" value="&lt;font style=&quot;font-size: 18px;&quot;&gt;1..1&lt;/font&gt;" style="text;strokeColor=none;fillColor=none;align=left;verticalAlign=middle;spacingLeft=4;spacingRight=4;overflow=hidden;points=[[0,0.5],[1,0.5]];portConstraint=eastwest;rotatable=0;whiteSpace=wrap;html=1;" parent="1" vertex="1">
          <mxGeometry x="-270" y="908.5" width="80" height="30" as="geometry" />
        </mxCell>
        <mxCell id="Nt6avx-49yO2hUIwVl1T-30" value="&lt;font style=&quot;font-size: 18px;&quot;&gt;0..M&lt;/font&gt;" style="text;strokeColor=none;fillColor=none;align=left;verticalAlign=middle;spacingLeft=4;spacingRight=4;overflow=hidden;points=[[0,0.5],[1,0.5]];portConstraint=eastwest;rotatable=0;whiteSpace=wrap;html=1;" parent="1" vertex="1">
          <mxGeometry x="280.1400000000001" y="918.5" width="50" height="30" as="geometry" />
        </mxCell>
        <mxCell id="pgdKvnoEqIlwcUYuX8Xp-1" value="" style="endArrow=none;html=1;rounded=0;entryX=0;entryY=0.5;entryDx=0;entryDy=0;exitX=1;exitY=0.5;exitDx=0;exitDy=0;" parent="1" source="Ol68pxwGy6gouUy0jPH--53" target="Ol68pxwGy6gouUy0jPH--78" edge="1">
          <mxGeometry width="50" height="50" relative="1" as="geometry">
            <mxPoint x="1280" y="700" as="sourcePoint" />
            <mxPoint x="1330" y="650" as="targetPoint" />
          </mxGeometry>
        </mxCell>
        <mxCell id="l7rCiU54DcE2ixksDjyi-1" value="&lt;font style=&quot;font-size: 24px;&quot;&gt;PCat&lt;/font&gt;" style="ellipse;whiteSpace=wrap;html=1;fillColor=#d5e8d4;strokeColor=#82b366;" vertex="1" parent="1">
          <mxGeometry x="375.1400000000001" y="1196" width="120" height="80" as="geometry" />
        </mxCell>
        <mxCell id="l7rCiU54DcE2ixksDjyi-2" value="" style="endArrow=none;html=1;rounded=0;exitX=0.5;exitY=1;exitDx=0;exitDy=0;entryX=0.5;entryY=0;entryDx=0;entryDy=0;" edge="1" parent="1" source="Ol68pxwGy6gouUy0jPH--28" target="l7rCiU54DcE2ixksDjyi-1">
          <mxGeometry width="50" height="50" relative="1" as="geometry">
            <mxPoint x="620" y="1152.0000000000005" as="sourcePoint" />
            <mxPoint x="759.86" y="1291" as="targetPoint" />
          </mxGeometry>
        </mxCell>
        <mxCell id="l7rCiU54DcE2ixksDjyi-3" value="&lt;font style=&quot;font-size: 24px;&quot;&gt;Leaves&lt;/font&gt;" style="rhombus;whiteSpace=wrap;html=1;fillColor=#f8cecc;strokeColor=#b85450;" vertex="1" parent="1">
          <mxGeometry x="530" y="105" width="130" height="130" as="geometry" />
        </mxCell>
        <mxCell id="l7rCiU54DcE2ixksDjyi-5" value="" style="endArrow=none;html=1;rounded=0;entryX=0;entryY=0.5;entryDx=0;entryDy=0;" edge="1" parent="1">
          <mxGeometry width="50" height="50" relative="1" as="geometry">
            <mxPoint x="660" y="168.89" as="sourcePoint" />
            <mxPoint x="940" y="168.89" as="targetPoint" />
          </mxGeometry>
        </mxCell>
        <mxCell id="l7rCiU54DcE2ixksDjyi-6" value="&lt;font style=&quot;font-size: 24px;&quot;&gt;MESSAGE&lt;/font&gt;" style="rounded=0;whiteSpace=wrap;html=1;fillColor=#fff2cc;strokeColor=#d6b656;" vertex="1" parent="1">
          <mxGeometry x="940" y="140" width="160" height="60" as="geometry" />
        </mxCell>
        <mxCell id="l7rCiU54DcE2ixksDjyi-7" value="&lt;font style=&quot;font-size: 18px;&quot;&gt;1..1&lt;/font&gt;" style="text;strokeColor=none;fillColor=none;align=left;verticalAlign=middle;spacingLeft=4;spacingRight=4;overflow=hidden;points=[[0,0.5],[1,0.5]];portConstraint=eastwest;rotatable=0;whiteSpace=wrap;html=1;" vertex="1" parent="1">
          <mxGeometry x="440.1400000000001" y="325" width="80" height="30" as="geometry" />
        </mxCell>
        <mxCell id="l7rCiU54DcE2ixksDjyi-8" value="" style="endArrow=classic;html=1;rounded=0;entryX=0.5;entryY=0;entryDx=0;entryDy=0;exitX=0;exitY=0.5;exitDx=0;exitDy=0;" edge="1" parent="1" source="l7rCiU54DcE2ixksDjyi-3" target="Ol68pxwGy6gouUy0jPH--17">
          <mxGeometry width="50" height="50" relative="1" as="geometry">
            <mxPoint x="520" y="70" as="sourcePoint" />
            <mxPoint x="-40" y="385" as="targetPoint" />
            <Array as="points">
              <mxPoint x="435" y="170" />
            </Array>
          </mxGeometry>
        </mxCell>
        <mxCell id="l7rCiU54DcE2ixksDjyi-10" value="&lt;font style=&quot;font-size: 18px;&quot;&gt;0..M&lt;/font&gt;" style="text;strokeColor=none;fillColor=none;align=left;verticalAlign=middle;spacingLeft=4;spacingRight=4;overflow=hidden;points=[[0,0.5],[1,0.5]];portConstraint=eastwest;rotatable=0;whiteSpace=wrap;html=1;" vertex="1" parent="1">
          <mxGeometry x="865.1400000000001" y="130" width="80" height="30" as="geometry" />
        </mxCell>
        <mxCell id="l7rCiU54DcE2ixksDjyi-11" value="&lt;font style=&quot;font-size: 24px;&quot;&gt;&lt;u&gt;MID&lt;/u&gt;&lt;/font&gt;" style="ellipse;whiteSpace=wrap;html=1;fillColor=#d5e8d4;strokeColor=#82b366;" vertex="1" parent="1">
          <mxGeometry x="825.14" y="-40" width="120" height="80" as="geometry" />
        </mxCell>
        <mxCell id="l7rCiU54DcE2ixksDjyi-12" value="&lt;font style=&quot;font-size: 24px;&quot;&gt;MDate&lt;/font&gt;" style="ellipse;whiteSpace=wrap;html=1;fillColor=#d5e8d4;strokeColor=#82b366;" vertex="1" parent="1">
          <mxGeometry x="1100" y="-40" width="120" height="80" as="geometry" />
        </mxCell>
        <mxCell id="l7rCiU54DcE2ixksDjyi-13" value="" style="endArrow=none;html=1;rounded=0;entryX=0.5;entryY=0;entryDx=0;entryDy=0;exitX=0.5;exitY=1;exitDx=0;exitDy=0;" edge="1" parent="1" source="l7rCiU54DcE2ixksDjyi-11" target="l7rCiU54DcE2ixksDjyi-6">
          <mxGeometry width="50" height="50" relative="1" as="geometry">
            <mxPoint x="850" y="500" as="sourcePoint" />
            <mxPoint x="900" y="450" as="targetPoint" />
          </mxGeometry>
        </mxCell>
        <mxCell id="l7rCiU54DcE2ixksDjyi-14" value="" style="endArrow=none;html=1;rounded=0;exitX=0.5;exitY=1;exitDx=0;exitDy=0;entryX=0.5;entryY=0;entryDx=0;entryDy=0;" edge="1" parent="1" source="l7rCiU54DcE2ixksDjyi-12" target="l7rCiU54DcE2ixksDjyi-6">
          <mxGeometry width="50" height="50" relative="1" as="geometry">
            <mxPoint x="950" y="90" as="sourcePoint" />
            <mxPoint x="1450" y="240" as="targetPoint" />
          </mxGeometry>
        </mxCell>
        <mxCell id="l7rCiU54DcE2ixksDjyi-16" value="" style="endArrow=classic;html=1;rounded=0;exitX=0;exitY=0.5;exitDx=0;exitDy=0;entryX=1;entryY=0.75;entryDx=0;entryDy=0;" edge="1" parent="1" source="Ol68pxwGy6gouUy0jPH--131" target="Ol68pxwGy6gouUy0jPH--17">
          <mxGeometry width="50" height="50" relative="1" as="geometry">
            <mxPoint x="210" y="270" as="sourcePoint" />
            <mxPoint x="445" y="385" as="targetPoint" />
          </mxGeometry>
        </mxCell>
        <mxCell id="l7rCiU54DcE2ixksDjyi-29" style="edgeStyle=orthogonalEdgeStyle;rounded=0;orthogonalLoop=1;jettySize=auto;html=1;exitX=0;exitY=0.5;exitDx=0;exitDy=0;entryX=1;entryY=0.5;entryDx=0;entryDy=0;" edge="1" parent="1" source="l7rCiU54DcE2ixksDjyi-18" target="Ol68pxwGy6gouUy0jPH--17">
          <mxGeometry relative="1" as="geometry" />
        </mxCell>
        <mxCell id="l7rCiU54DcE2ixksDjyi-18" value="&lt;font style=&quot;font-size: 24px;&quot;&gt;Provides&lt;/font&gt;" style="rhombus;whiteSpace=wrap;html=1;fillColor=#f8cecc;strokeColor=#b85450;" vertex="1" parent="1">
          <mxGeometry x="1150" y="215" width="130" height="130" as="geometry" />
        </mxCell>
        <mxCell id="l7rCiU54DcE2ixksDjyi-19" value="" style="endArrow=none;html=1;rounded=0;entryX=0;entryY=0.5;entryDx=0;entryDy=0;" edge="1" parent="1">
          <mxGeometry width="50" height="50" relative="1" as="geometry">
            <mxPoint x="1280" y="278.89" as="sourcePoint" />
            <mxPoint x="1560" y="278.89" as="targetPoint" />
          </mxGeometry>
        </mxCell>
        <mxCell id="l7rCiU54DcE2ixksDjyi-20" value="&lt;font style=&quot;font-size: 24px;&quot;&gt;FEEDBACK&lt;/font&gt;" style="rounded=0;whiteSpace=wrap;html=1;fillColor=#fff2cc;strokeColor=#d6b656;" vertex="1" parent="1">
          <mxGeometry x="1560" y="250" width="160" height="60" as="geometry" />
        </mxCell>
        <mxCell id="l7rCiU54DcE2ixksDjyi-21" value="&lt;font style=&quot;font-size: 18px;&quot;&gt;0..M&lt;/font&gt;" style="text;strokeColor=none;fillColor=none;align=left;verticalAlign=middle;spacingLeft=4;spacingRight=4;overflow=hidden;points=[[0,0.5],[1,0.5]];portConstraint=eastwest;rotatable=0;whiteSpace=wrap;html=1;" vertex="1" parent="1">
          <mxGeometry x="1485.14" y="240" width="80" height="30" as="geometry" />
        </mxCell>
        <mxCell id="l7rCiU54DcE2ixksDjyi-22" value="&lt;font style=&quot;font-size: 24px;&quot;&gt;&lt;u&gt;FID&lt;/u&gt;&lt;/font&gt;" style="ellipse;whiteSpace=wrap;html=1;fillColor=#d5e8d4;strokeColor=#82b366;" vertex="1" parent="1">
          <mxGeometry x="1445.1399999999999" y="70" width="120" height="80" as="geometry" />
        </mxCell>
        <mxCell id="l7rCiU54DcE2ixksDjyi-23" value="&lt;font style=&quot;font-size: 24px;&quot;&gt;FDate&lt;/font&gt;" style="ellipse;whiteSpace=wrap;html=1;fillColor=#d5e8d4;strokeColor=#82b366;" vertex="1" parent="1">
          <mxGeometry x="1720" y="70" width="120" height="80" as="geometry" />
        </mxCell>
        <mxCell id="l7rCiU54DcE2ixksDjyi-24" value="" style="endArrow=none;html=1;rounded=0;entryX=0.5;entryY=0;entryDx=0;entryDy=0;exitX=0.5;exitY=1;exitDx=0;exitDy=0;" edge="1" parent="1" source="l7rCiU54DcE2ixksDjyi-22" target="l7rCiU54DcE2ixksDjyi-20">
          <mxGeometry width="50" height="50" relative="1" as="geometry">
            <mxPoint x="1470" y="610" as="sourcePoint" />
            <mxPoint x="1520" y="560" as="targetPoint" />
          </mxGeometry>
        </mxCell>
        <mxCell id="l7rCiU54DcE2ixksDjyi-25" value="" style="endArrow=none;html=1;rounded=0;exitX=0.5;exitY=1;exitDx=0;exitDy=0;entryX=0.5;entryY=0;entryDx=0;entryDy=0;" edge="1" parent="1" source="l7rCiU54DcE2ixksDjyi-23" target="l7rCiU54DcE2ixksDjyi-20">
          <mxGeometry width="50" height="50" relative="1" as="geometry">
            <mxPoint x="1570" y="200" as="sourcePoint" />
            <mxPoint x="2070" y="350" as="targetPoint" />
          </mxGeometry>
        </mxCell>
        <mxCell id="l7rCiU54DcE2ixksDjyi-27" value="" style="endArrow=none;html=1;rounded=0;entryX=0.5;entryY=0;entryDx=0;entryDy=0;exitX=0.5;exitY=1;exitDx=0;exitDy=0;" edge="1" parent="1" source="l7rCiU54DcE2ixksDjyi-28" target="l7rCiU54DcE2ixksDjyi-6">
          <mxGeometry width="50" height="50" relative="1" as="geometry">
            <mxPoint x="1020" y="-10" as="sourcePoint" />
            <mxPoint x="1030" y="150" as="targetPoint" />
          </mxGeometry>
        </mxCell>
        <mxCell id="l7rCiU54DcE2ixksDjyi-28" value="&lt;font style=&quot;font-size: 24px;&quot;&gt;Mes&lt;span style=&quot;color: rgba(0, 0, 0, 0); font-family: monospace; font-size: 0px; text-align: start; text-wrap-mode: nowrap;&quot;&gt;%3CmxGraphModel%3E%3Croot%3E%3CmxCell%20id%3D%220%22%2F%3E%3CmxCell%20id%3D%221%22%20parent%3D%220%22%2F%3E%3CmxCell%20id%3D%222%22%20value%3D%22%26lt%3Bfont%20style%3D%26quot%3Bfont-size%3A%2024px%3B%26quot%3B%26gt%3BMessage%26lt%3B%2Ffont%26gt%3B%22%20style%3D%22ellipse%3BwhiteSpace%3Dwrap%3Bhtml%3D1%3BfillColor%3D%23d5e8d4%3BstrokeColor%3D%2382b366%3B%22%20vertex%3D%221%22%20parent%3D%221%22%3E%3CmxGeometry%20x%3D%22960%22%20y%3D%22-130%22%20width%3D%22120%22%20height%3D%2280%22%20as%3D%22geometry%22%2F%3E%3C%2FmxCell%3E%3C%2Froot%3E%3C%2FmxGraphModel%3E&lt;/span&gt;sage&lt;/font&gt;" style="ellipse;whiteSpace=wrap;html=1;fillColor=#d5e8d4;strokeColor=#82b366;" vertex="1" parent="1">
          <mxGeometry x="960" y="-130" width="120" height="80" as="geometry" />
        </mxCell>
        <mxCell id="l7rCiU54DcE2ixksDjyi-30" value="&lt;font style=&quot;font-size: 18px;&quot;&gt;1..1&lt;/font&gt;" style="text;strokeColor=none;fillColor=none;align=left;verticalAlign=middle;spacingLeft=4;spacingRight=4;overflow=hidden;points=[[0,0.5],[1,0.5]];portConstraint=eastwest;rotatable=0;whiteSpace=wrap;html=1;" vertex="1" parent="1">
          <mxGeometry x="515.1400000000001" y="365" width="80" height="30" as="geometry" />
        </mxCell>
        <mxCell id="l7rCiU54DcE2ixksDjyi-31" value="&lt;font style=&quot;font-size: 24px;&quot;&gt;Comment&lt;/font&gt;" style="ellipse;whiteSpace=wrap;html=1;fillColor=#d5e8d4;strokeColor=#82b366;" vertex="1" parent="1">
          <mxGeometry x="1830" y="240" width="140" height="80" as="geometry" />
        </mxCell>
        <mxCell id="l7rCiU54DcE2ixksDjyi-32" value="&lt;font style=&quot;font-size: 24px;&quot;&gt;Rating&lt;/font&gt;" style="ellipse;whiteSpace=wrap;html=1;fillColor=#d5e8d4;strokeColor=#82b366;" vertex="1" parent="1">
          <mxGeometry x="1570" y="-40" width="140" height="80" as="geometry" />
        </mxCell>
        <mxCell id="l7rCiU54DcE2ixksDjyi-33" value="" style="endArrow=none;html=1;rounded=0;exitX=0.5;exitY=1;exitDx=0;exitDy=0;entryX=0.5;entryY=0;entryDx=0;entryDy=0;" edge="1" parent="1" source="l7rCiU54DcE2ixksDjyi-32" target="l7rCiU54DcE2ixksDjyi-20">
          <mxGeometry width="50" height="50" relative="1" as="geometry">
            <mxPoint x="1790" y="160" as="sourcePoint" />
            <mxPoint x="1650" y="260" as="targetPoint" />
          </mxGeometry>
        </mxCell>
        <mxCell id="l7rCiU54DcE2ixksDjyi-34" value="" style="endArrow=none;html=1;rounded=0;exitX=0;exitY=0.5;exitDx=0;exitDy=0;entryX=1;entryY=0.5;entryDx=0;entryDy=0;" edge="1" parent="1" source="l7rCiU54DcE2ixksDjyi-31" target="l7rCiU54DcE2ixksDjyi-20">
          <mxGeometry width="50" height="50" relative="1" as="geometry">
            <mxPoint x="1650" y="50" as="sourcePoint" />
            <mxPoint x="1650" y="260" as="targetPoint" />
          </mxGeometry>
        </mxCell>
        <mxCell id="l7rCiU54DcE2ixksDjyi-41" value="" style="endArrow=none;html=1;rounded=0;exitX=0.906;exitY=0.628;exitDx=0;exitDy=0;exitPerimeter=0;entryX=0;entryY=0.75;entryDx=0;entryDy=0;" edge="1" parent="1" source="l7rCiU54DcE2ixksDjyi-3" target="l7rCiU54DcE2ixksDjyi-6">
          <mxGeometry width="50" height="50" relative="1" as="geometry">
            <mxPoint x="890" y="610" as="sourcePoint" />
            <mxPoint x="940" y="560" as="targetPoint" />
          </mxGeometry>
        </mxCell>
        <mxCell id="l7rCiU54DcE2ixksDjyi-42" value="" style="endArrow=none;html=1;rounded=0;exitX=0.906;exitY=0.628;exitDx=0;exitDy=0;exitPerimeter=0;entryX=0;entryY=0.75;entryDx=0;entryDy=0;" edge="1" parent="1">
          <mxGeometry width="50" height="50" relative="1" as="geometry">
            <mxPoint x="1266" y="292" as="sourcePoint" />
            <mxPoint x="1558" y="290" as="targetPoint" />
          </mxGeometry>
        </mxCell>
      </root>
    </mxGraphModel>
  </diagram>
</mxfile>
